<svg viewBox="0 0 12 16" xmlns="http://www.w3.org/2000/svg" xmlns:xlink="http://www.w3.org/1999/xlink" width="12.000000" height="16.000000" customFrame="#000000">
	<path d="M1.5 16C1.0875 16 0.734375 15.8508 0.440625 15.5524C0.146875 15.254 0 14.8952 0 14.4762L0 6.85714C0 6.4381 0.146875 6.07936 0.440625 5.78095C0.734375 5.48254 1.0875 5.33333 1.5 5.33333L2.25 5.33333L2.25 3.80952C2.25 2.75556 2.61563 1.85714 3.34688 1.11429C4.07812 0.371429 4.9625 0 6 0C7.0375 0 7.92188 0.371429 8.65313 1.11429C9.38438 1.85714 9.75 2.75556 9.75 3.80952L9.75 5.33333L10.5 5.33333C10.9125 5.33333 11.2656 5.48254 11.5594 5.78095C11.8531 6.07936 12 6.4381 12 6.85714L12 14.4762C12 14.8952 11.8531 15.254 11.5594 15.5524C11.2656 15.8508 10.9125 16 10.5 16L1.5 16ZM1.5 14.4762L10.5 14.4762L10.5 6.85714L1.5 6.85714L1.5 14.4762ZM7.05938 11.7429C7.35313 11.4444 7.5 11.0857 7.5 10.6667C7.5 10.2476 7.35313 9.88889 7.05938 9.59048C6.76563 9.29206 6.4125 9.14286 6 9.14286C5.5875 9.14286 5.23438 9.29206 4.94063 9.59048C4.64687 9.88889 4.5 10.2476 4.5 10.6667C4.5 11.0857 4.64687 11.4444 4.94063 11.7429C5.23438 12.0413 5.5875 12.1905 6 12.1905C6.4125 12.1905 6.76563 12.0413 7.05938 11.7429ZM3.75 5.33333L8.25 5.33333L8.25 3.80952C8.25 3.1746 8.03125 2.63492 7.59375 2.19048C7.15625 1.74603 6.625 1.52381 6 1.52381C5.375 1.52381 4.84375 1.74603 4.40625 2.19048C3.96875 2.63492 3.75 3.1746 3.75 3.80952L3.75 5.33333ZM1.5 6.85714L1.5 14.4762L1.5 6.85714Z" fill-rule="nonzero" />
</svg>
